<?xml version="1.0" standalone="no"?><svg xmlns="http://www.w3.org/2000/svg" viewBox="0 0 1440 320"><path fill="#f3f4f5" fill-opacity="1" d="M0,96L17.1,117.3C34.3,139,69,181,103,176C137.1,171,171,117,206,106.7C240,96,274,128,309,160C342.9,192,377,224,411,240C445.7,256,480,256,514,256C548.6,256,583,256,617,229.3C651.4,203,686,149,720,128C754.3,107,789,117,823,133.3C857.1,149,891,171,926,192C960,213,994,235,1029,250.7C1062.9,267,1097,277,1131,277.3C1165.7,277,1200,267,1234,245.3C1268.6,224,1303,192,1337,197.3C1371.4,203,1406,245,1423,266.7L1440,288L1440,320L1422.9,320C1405.7,320,1371,320,1337,320C1302.9,320,1269,320,1234,320C1200,320,1166,320,1131,320C1097.1,320,1063,320,1029,320C994.3,320,960,320,926,320C891.4,320,857,320,823,320C788.6,320,754,320,720,320C685.7,320,651,320,617,320C582.9,320,549,320,514,320C480,320,446,320,411,320C377.1,320,343,320,309,320C274.3,320,240,320,206,320C171.4,320,137,320,103,320C68.6,320,34,320,17,320L0,320Z"></path></svg>