<?xml version="1.0" standalone="no"?><svg xmlns="http://www.w3.org/2000/svg" viewBox="0 0 1440 320"><path fill="#f3f4f5" fill-opacity="1" d="M0,96L17.1,117.3C34.3,139,69,181,103,176C137.1,171,171,117,206,106.7C240,96,274,128,309,160C342.9,192,377,224,411,240C445.7,256,480,256,514,256C548.6,256,583,256,617,229.3C651.4,203,686,149,720,128C754.3,107,789,117,823,133.3C857.1,149,891,171,926,192C960,213,994,235,1029,250.7C1062.9,267,1097,277,1131,277.3C1165.7,277,1200,267,1234,245.3C1268.6,224,1303,192,1337,197.3C1371.4,203,1406,245,1423,266.7L1440,288L1440,0L1422.9,0C1405.7,0,1371,0,1337,0C1302.9,0,1269,0,1234,0C1200,0,1166,0,1131,0C1097.1,0,1063,0,1029,0C994.3,0,960,0,926,0C891.4,0,857,0,823,0C788.6,0,754,0,720,0C685.7,0,651,0,617,0C582.9,0,549,0,514,0C480,0,446,0,411,0C377.1,0,343,0,309,0C274.3,0,240,0,206,0C171.4,0,137,0,103,0C68.6,0,34,0,17,0L0,0Z"></path></svg>